<?xml version="1.0" encoding="UTF-8"?>
<svg version="1.1" xmlns="http://www.w3.org/2000/svg" width="100" height="100">
<path d="M0 0 C9.40707465 5.68464327 15.68680199 13.83643636 18.546875 24.5390625 C19.81816587 35.18018906 19.08411233 45.14253855 13.546875 54.5390625 C12.556875 55.5290625 12.556875 55.5290625 11.546875 56.5390625 C13.031875 57.0340625 13.031875 57.0340625 14.546875 57.5390625 C14.546875 58.8590625 14.546875 60.1790625 14.546875 61.5390625 C13.226875 61.5390625 11.906875 61.5390625 10.546875 61.5390625 C10.216875 60.8790625 9.886875 60.2190625 9.546875 59.5390625 C9.01320313 59.99796875 8.47953125 60.456875 7.9296875 60.9296875 C-2.56169886 69.56965274 -11.91574525 71.83539098 -25.31445312 70.80957031 C-34.8744138 69.60038807 -42.8797787 64.22976046 -48.828125 56.828125 C-51.453125 53.09114583 -51.453125 53.09114583 -51.453125 50.5390625 C-52.2575 50.5596875 -53.061875 50.5803125 -53.890625 50.6015625 C-56.453125 50.5390625 -56.453125 50.5390625 -57.453125 49.5390625 C-57.578125 46.5390625 -57.578125 46.5390625 -57.453125 43.5390625 C-56.958125 43.0440625 -56.958125 43.0440625 -56.453125 42.5390625 C-56.37687052 40.5797461 -56.30610979 38.62003955 -56.26513672 36.65966797 C-55.96707395 24.96481162 -53.82146128 15.03480794 -45.4765625 6.2890625 C-32.87910695 -4.60603419 -15.10756629 -7.47031593 0 0 Z " fill="#CDDFF1" transform="translate(68.453125,16.4609375)"/>
<path d="M0 0 C1.15757813 -0.00257812 2.31515625 -0.00515625 3.5078125 -0.0078125 C4.72210938 -0.00007813 5.93640625 0.00765625 7.1875 0.015625 C8.40179688 0.00789063 9.61609375 0.00015625 10.8671875 -0.0078125 C12.60355469 -0.00394531 12.60355469 -0.00394531 14.375 0 C15.44105469 0.00225586 16.50710937 0.00451172 17.60546875 0.00683594 C20.1875 0.265625 20.1875 0.265625 22.1875 2.265625 C22.4375 5.265625 22.4375 5.265625 22.1875 8.265625 C20.1875 10.265625 20.1875 10.265625 16.2734375 10.4609375 C14.70300649 10.44762876 13.13263779 10.42376102 11.5625 10.390625 C10.76070312 10.38160156 9.95890625 10.37257813 9.1328125 10.36328125 C7.15091477 10.33968723 5.16917019 10.30381565 3.1875 10.265625 C3.1875 13.235625 3.1875 16.205625 3.1875 19.265625 C4.63125 19.224375 6.075 19.183125 7.5625 19.140625 C10.0234375 19.0703125 10.0234375 19.0703125 12.1875 19.265625 C12.8475 19.925625 13.5075 20.585625 14.1875 21.265625 C13.8125 24.890625 13.8125 24.890625 13.1875 28.265625 C9.8875 28.265625 6.5875 28.265625 3.1875 28.265625 C3.1875 31.565625 3.1875 34.865625 3.1875 38.265625 C4.39148438 38.24242187 5.59546875 38.21921875 6.8359375 38.1953125 C8.41145215 38.17655637 9.98697348 38.15835601 11.5625 38.140625 C12.3565625 38.12386719 13.150625 38.10710938 13.96875 38.08984375 C16.04242015 38.07227027 18.11633241 38.16227332 20.1875 38.265625 C20.8475 38.925625 21.5075 39.585625 22.1875 40.265625 C21.61057692 46.84254808 21.61057692 46.84254808 20.1875 48.265625 C15.88102364 48.51904736 11.56304946 48.45085138 7.25 48.453125 C6.03119141 48.46537109 4.81238281 48.47761719 3.55664062 48.49023438 C1.81350586 48.49313477 1.81350586 48.49313477 0.03515625 48.49609375 C-1.5734729 48.50225708 -1.5734729 48.50225708 -3.21459961 48.50854492 C-5.8125 48.265625 -5.8125 48.265625 -7.8125 46.265625 C-8.06646729 44.36816406 -8.06646729 44.36816406 -8.07128906 42.03125 C-8.07759338 41.15694336 -8.08389771 40.28263672 -8.09039307 39.38183594 C-8.0863446 38.43598633 -8.08229614 37.49013672 -8.078125 36.515625 C-8.08003845 35.54657227 -8.0819519 34.57751953 -8.08392334 33.57910156 C-8.08528579 31.52799215 -8.08158518 29.47687414 -8.07324219 27.42578125 C-8.06254359 24.27844961 -8.07313554 21.1316888 -8.0859375 17.984375 C-8.08461592 15.9947904 -8.08205355 14.00520616 -8.078125 12.015625 C-8.08217346 11.06977539 -8.08622192 10.12392578 -8.09039307 9.14941406 C-8.08408875 8.27510742 -8.07778442 7.40080078 -8.07128906 6.5 C-8.06969788 5.72881836 -8.06810669 4.95763672 -8.06646729 4.16308594 C-7.43505458 -0.55437574 -3.87938233 0.00820909 0 0 Z " fill="#BC3948" transform="translate(42.8125,25.734375)"/>
<path d="M0 0 C3 0.125 3 0.125 4 1.125 C4.125 4.125 4.125 4.125 4 7.125 C3 8.125 3 8.125 0 8.25 C-3 8.125 -3 8.125 -4 7.125 C-4.125 4.125 -4.125 4.125 -4 1.125 C-3 0.125 -3 0.125 0 0 Z " fill="#F0B319" transform="translate(83,10.875)"/>
<path d="M0 0 C2.5625 0.1875 2.5625 0.1875 4.5625 2.1875 C4.00694444 6.74305556 4.00694444 6.74305556 2.5625 8.1875 C0.0625 8.3125 0.0625 8.3125 -2.4375 8.1875 C-3.4375 7.1875 -3.4375 7.1875 -3.5625 4.1875 C-3.39891479 0.26145498 -3.39891479 0.26145498 0 0 Z " fill="#F9CD5C" transform="translate(14.4375,58.8125)"/>
<path d="M0 0 C1.98 0.495 1.98 0.495 4 1 C3.67 2.32 3.34 3.64 3 5 C1.68 4.67 0.36 4.34 -1 4 C-0.67 2.68 -0.34 1.36 0 0 Z " fill="#F9FBFD" transform="translate(17,51)"/>
<path d="M0 0 C1.32 0 2.64 0 4 0 C4 1.32 4 2.64 4 4 C2.68 4 1.36 4 0 4 C0 2.68 0 1.36 0 0 Z " fill="#77A2CE" transform="translate(23,85)"/>
<path d="M0 0 C1.32 0 2.64 0 4 0 C4 1.32 4 2.64 4 4 C2.68 4 1.36 4 0 4 C0 2.68 0 1.36 0 0 Z " fill="#77A2CE" transform="translate(11,27)"/>
<path d="M0 0 C1.32 0 2.64 0 4 0 C4 1.32 4 2.64 4 4 C2.68 4 1.36 4 0 4 C0 2.68 0 1.36 0 0 Z " fill="#77A2CE" transform="translate(85,22)"/>
<path d="M0 0 C0.66 0 1.32 0 2 0 C2 0.66 2 1.32 2 2 C1.34 2 0.68 2 0 2 C0 1.34 0 0.68 0 0 Z " fill="#F0B318" transform="translate(76,12)"/>
</svg>
