<svg width="116" height="25" viewBox="0 0 116 25" fill="none" xmlns="http://www.w3.org/2000/svg">
<path d="M115.144 11.1192V9.09421H112.629V5.94617L112.545 5.97224L110.183 6.6949L110.136 6.70904V9.09433H106.408V7.76552C106.408 7.14678 106.547 6.67329 106.819 6.35751C107.09 6.04553 107.477 5.88692 107.971 5.88692C108.326 5.88692 108.694 5.97057 109.064 6.13553L109.157 6.17696V4.0444L109.113 4.02836C108.768 3.90428 108.299 3.8418 107.717 3.8418C106.983 3.8418 106.317 4.00141 105.736 4.31774C105.154 4.63452 104.697 5.08673 104.376 5.6617C104.057 6.23599 103.895 6.89928 103.895 7.6333V9.09421H102.144V11.1192H103.895V19.65H106.408V11.1192H110.136V16.5403C110.136 18.773 111.189 19.9045 113.266 19.9045C113.608 19.9045 113.967 19.8645 114.334 19.7862C114.707 19.7058 114.961 19.6254 115.111 19.5397L115.144 19.5201V17.4764L115.042 17.544C114.905 17.6349 114.735 17.7092 114.536 17.7644C114.336 17.8207 114.169 17.8489 114.04 17.8489C113.553 17.8489 113.193 17.7178 112.97 17.459C112.744 17.1979 112.629 16.7414 112.629 16.1027V11.1192H115.144ZM96.5304 17.8492C95.6181 17.8492 94.8988 17.5467 94.3919 16.9508C93.8818 16.3519 93.6234 15.498 93.6234 14.4131C93.6234 13.2938 93.8818 12.4178 94.3921 11.8083C94.8993 11.2028 95.6117 10.8955 96.5099 10.8955C97.3815 10.8955 98.0753 11.189 98.5723 11.7683C99.0718 12.3506 99.3253 13.2197 99.3253 14.352C99.3253 15.4982 99.0869 16.3787 98.6169 16.9677C98.1501 17.5523 97.4481 17.8492 96.5304 17.8492ZM96.6422 8.83993C94.9016 8.83993 93.5191 9.34995 92.5333 10.3559C91.5482 11.3619 91.0488 12.7541 91.0488 14.4941C91.0488 16.1468 91.5363 17.4762 92.498 18.4447C93.4597 19.4135 94.7685 19.9042 96.3876 19.9042C98.0749 19.9042 99.4299 19.3871 100.415 18.3673C101.4 17.3485 101.899 15.9695 101.899 14.2701C101.899 12.5916 101.431 11.2523 100.507 10.2903C99.5824 9.32779 98.2818 8.83993 96.6422 8.83993ZM86.9961 8.83993C85.8121 8.83993 84.8327 9.14278 84.0845 9.73991C83.3318 10.3406 82.95 11.1284 82.95 12.0818C82.95 12.5773 83.0324 13.0175 83.1945 13.3908C83.3577 13.7654 83.6102 14.0952 83.9457 14.372C84.2787 14.6466 84.7926 14.9342 85.4736 15.2268C86.0461 15.4624 86.473 15.6616 86.7442 15.8187C87.0093 15.9726 87.1975 16.1273 87.3037 16.278C87.407 16.4255 87.4593 16.6273 87.4593 16.8764C87.4593 17.5856 86.9283 17.9306 85.8355 17.9306C85.4301 17.9306 84.9678 17.846 84.4613 17.6791C83.9585 17.5148 83.4838 17.2741 83.0541 16.9656L82.9497 16.8908V19.3108L82.988 19.3286C83.3437 19.4928 83.7921 19.6312 84.3206 19.7402C84.8482 19.8492 85.3274 19.9047 85.7438 19.9047C87.0286 19.9047 88.0633 19.6004 88.8182 18.9997C89.578 18.3949 89.963 17.5885 89.963 16.6022C89.963 15.8906 89.7557 15.2805 89.3472 14.7884C88.9414 14.3003 88.2371 13.8522 87.2548 13.4561C86.4722 13.142 85.9709 12.8813 85.7641 12.6811C85.5647 12.4877 85.4634 12.2143 85.4634 11.868C85.4634 11.561 85.5884 11.3151 85.8449 11.1159C86.1035 10.9158 86.4633 10.814 86.9147 10.814C87.3335 10.814 87.762 10.8801 88.1881 11.0098C88.6139 11.1394 88.988 11.3131 89.3002 11.5255L89.4029 11.5957V9.30005L89.3634 9.28312C89.0754 9.1596 88.6956 9.05389 88.2342 8.96813C87.775 8.88292 87.3584 8.83993 86.9961 8.83993ZM76.3971 17.8492C75.485 17.8492 74.7655 17.5467 74.2587 16.9508C73.7485 16.3519 73.4906 15.4982 73.4906 14.4131C73.4906 13.2938 73.7489 12.4178 74.2592 11.8083C74.766 11.2028 75.4783 10.8955 76.377 10.8955C77.2482 10.8955 77.942 11.189 78.4391 11.7683C78.9387 12.3506 79.1921 13.2197 79.1921 14.352C79.1921 15.4982 78.9536 16.3787 78.4836 16.9677C78.0168 17.5523 77.3152 17.8492 76.3971 17.8492ZM76.5092 8.83993C74.7681 8.83993 73.3855 9.34995 72.4003 10.3559C71.4153 11.3619 70.9155 12.7541 70.9155 14.4941C70.9155 16.1475 71.4033 17.4762 72.365 18.4447C73.3267 19.4135 74.6354 19.9042 76.2546 19.9042C77.9416 19.9042 79.2969 19.3871 80.2822 18.3673C81.2672 17.3485 81.7665 15.9695 81.7665 14.2701C81.7665 12.5916 81.298 11.2523 80.3736 10.2903C79.4488 9.32779 78.1485 8.83993 76.5092 8.83993ZM67.0999 10.9222V9.09421H64.6169V19.6497H67.0999V14.2502C67.0999 13.332 67.3081 12.5777 67.7189 12.008C68.1244 11.4451 68.6649 11.1598 69.3247 11.1598C69.5484 11.1598 69.7994 11.1967 70.0713 11.2697C70.3404 11.3422 70.5353 11.4209 70.6503 11.5038L70.7546 11.5794V9.07617L70.7144 9.05891C70.4832 8.96067 70.1561 8.9111 69.7422 8.9111C69.1182 8.9111 68.5598 9.11159 68.0815 9.50634C67.6617 9.8533 67.3583 10.329 67.1263 10.9222H67.0999ZM60.1704 8.83993C59.0313 8.83993 58.0152 9.08419 57.151 9.5657C56.285 10.0483 55.6152 10.7373 55.1596 11.6135C54.7059 12.4875 54.4755 13.5085 54.4755 14.647C54.4755 15.6444 54.6989 16.5596 55.1403 17.3663C55.5819 18.1742 56.207 18.8063 56.9983 19.2447C57.7884 19.6826 58.7017 19.9046 59.7128 19.9046C60.8928 19.9046 61.9003 19.6687 62.708 19.2034L62.7407 19.1847V16.9099L62.6363 16.9861C62.2704 17.2526 61.8615 17.4654 61.4216 17.6186C60.9827 17.7718 60.5826 17.8492 60.2318 17.8492C59.2575 17.8492 58.4753 17.5444 57.9076 16.9433C57.3387 16.3415 57.0502 15.4964 57.0502 14.4331C57.0502 13.363 57.351 12.4962 57.9439 11.8566C58.535 11.219 59.3186 10.8955 60.2727 10.8955C61.0889 10.8955 61.8841 11.1719 62.6365 11.7176L62.7407 11.7933V9.3964L62.707 9.37746C62.4239 9.21896 62.0377 9.08809 61.5583 8.98885C61.0809 8.88983 60.614 8.83993 60.1704 8.83993ZM52.7655 9.09433H50.2825V19.6497H52.7655V9.09433ZM51.5494 4.59765C51.1407 4.59765 50.7843 4.73677 50.4915 5.01244C50.1974 5.2889 50.0483 5.63697 50.0483 6.04775C50.0483 6.45208 50.1956 6.7938 50.4869 7.06291C50.7763 7.33123 51.1338 7.46723 51.5495 7.46723C51.9651 7.46723 52.3239 7.33123 52.6168 7.06335C52.9115 6.7938 53.061 6.45219 53.061 6.04775C53.061 5.65134 52.9155 5.30683 52.6289 5.02358C52.3425 4.74089 51.9792 4.59765 51.5494 4.59765ZM45.3542 8.31553V19.6497H47.8882V4.92077H44.3811L39.9232 15.861L35.5972 4.92077H31.9473V19.6496H34.3285V8.31442H34.4103L38.9785 19.6497H40.7756L45.2725 8.31553H45.3542Z" fill="#706D6E"/>
<path d="M11.6806 11.6806H0V0H11.6806V11.6806Z" fill="#F1511B"/>
<path d="M24.5769 11.6806H12.8965V0H24.5769V11.6806Z" fill="#80CC28"/>
<path d="M11.6803 24.5809H0V12.9004H11.6803V24.5809Z" fill="#00ADEF"/>
<path d="M24.5769 24.5809H12.8965V12.9004H24.5769V24.5809Z" fill="#FBBC09"/>
</svg>
